<svg xmlns="http://www.w3.org/2000/svg" width="44" height="44" viewBox="0 0 44 44">
  <g id="Group_4565" data-name="Group 4565" transform="translate(-1750 -292)">
    <rect id="Rectangle_374" data-name="Rectangle 374" width="44" height="44" rx="7" transform="translate(1750 292)" fill="#81cc88" opacity="0.1"/>
    <g id="edit_1_" data-name="edit (1)" transform="translate(1761 302.998)">
      <g id="Group_77" data-name="Group 77" transform="translate(0 0.002)">
        <g id="Group_76" data-name="Group 76" transform="translate(0)">
          <path id="Path_121" data-name="Path 121" d="M16.287,82.171a.514.514,0,0,0-.706,0l-9.5,9.507a.5.5,0,0,0,.13.8l.78.39v1.313L4.6,94.866,2.19,92.452l.683-2.391H4.186l.39.78a.5.5,0,0,0,.367.27.5.5,0,0,0,.433-.14l9.5-9.507a.5.5,0,0,0,0-.707l-1.837-1.838a.5.5,0,0,0-.353-.146h0a.5.5,0,0,0-.354.148L2.142,89.209c0,.005,0,.013-.009.018a.489.489,0,0,0-.116.2l-.867,3.037L.019,96.422a.5.5,0,0,0,.48.637.507.507,0,0,0,.137-.019l3.958-1.131,3.034-.868c.009,0,.015-.01.024-.013a.921.921,0,0,0,.169-.1c.006-.006.015-.008.021-.014l10.28-10.2a.5.5,0,0,0,0-.708Z" transform="translate(0 -75.085)" fill="#81cc88"/>
          <path id="Path_122" data-name="Path 122" d="M298.1,3.568l-3-3a2.042,2.042,0,0,0-2.826,0l-1.829,1.848a.5.5,0,0,0,0,.705l5.1,5.1a.5.5,0,0,0,.7,0L298.1,6.4a2,2,0,0,0,0-2.827Z" transform="translate(-276.713 -0.002)" fill="#81cc88"/>
        </g>
      </g>
    </g>
  </g>
</svg>
